<svg xmlns="http://www.w3.org/2000/svg" xmlns:xlink="http://www.w3.org/1999/xlink" fill="none" version="1.1" width="172.29100036621094" height="43.42380142211914" viewBox="0 0 172.29100036621094 43.42380142211914"><defs><clipPath id="master_svg0_1532_57244"><rect x="0" y="0" width="172.29100036621094" height="43.42380142211914" rx="0"/></clipPath></defs><g clip-path="url(#master_svg0_1532_57244)"><path d="M18.032221125,20.701845671875L6.706214925,20.701845671875L6.517447925,22.268609071874998Q6.272051325,24.401674171875,5.630244225,26.553613171875Q5.082820925,28.422406171875,4.252247325,29.989170171875L2.345703125,29.517252171875Q4.120110425,26.100575171875,4.6109042250000005,22.230855971875002L5.290464425,16.265826971875Q5.384847925,15.529636571874999,5.677436125,15.246486771875Q5.970024824999999,14.963336971875,6.649584325,14.963336971875L11.236617125,14.963336971875L10.764699925,13.434326171875L12.765628125,13.434326171875L13.237544125,14.963336971875L17.163894125,14.963336971875Q18.579643125,14.963336971875,18.579643125,16.171443971875Q18.579643125,16.379087471875,18.560766125,16.492346971875L18.032221125,20.701845671875ZM16.616468125,16.699990471875L7.178131625,16.699990471875L6.913858425,18.965191371875L16.314442125,18.965191371875L16.616468125,16.699990471875ZM16.975124125,29.498377171875L6.913858425,29.498377171875L7.631171725,23.684360171875Q7.801061625,22.438500371875,9.046922225,22.438500371875L16.220058125,22.438500371875Q17.616933125,22.438500371875,17.616933125,23.703237171875Q17.616933125,23.910880171875,17.598057125,24.024141171875L16.975124125,29.498377171875ZM15.804771125,24.099647171875L9.367826425,24.099647171875L8.914785425,27.837229171875002L15.351732125,27.837229171875002L15.804771125,24.099647171875ZM37.758343125,16.190320771875L31.623428125,16.190320771875L31.510166125,16.983140671875L34.700325125,16.983140671875Q35.512020125,16.983140671875,35.908428125,17.370112871875Q36.304840125,17.757084371875,36.210461125,18.531028271875L35.361008125,25.326630171875L37.777222125,25.326630171875L37.588455125,26.799012171875L21.656540125,26.799012171875L21.845308125,25.326630171875L23.808479125,25.326630171875L24.676809125,18.417768471875Q24.790068125,17.719331771874998,25.148727125,17.351236071875Q25.507381125,16.983140671875,26.205818125,16.983140671875L29.584743125,16.983140671875L29.698007125,16.190320771875L23.468704125,16.190320771875L23.657469125,14.736816171875L29.924522125,14.736816171875L30.113291125,13.528709143875L32.038715124999996,13.528709143875L31.849945125,14.736816171875L37.947109125,14.736816171875L37.758343125,16.190320771875ZM34.379421125,18.398891471875L26.488970125,18.398891471875L26.394585125,19.210588471875L34.285034124999996,19.210588471875L34.379421125,18.398891471875ZM34.134022125,20.418695471875L26.243574125,20.418695471875L26.130312125,21.249268971875L34.039636125,21.249268971875L34.134022125,20.418695471875ZM33.888628125,22.438500371875L25.979299125,22.438500371875L25.884918125,23.269074471875L33.794245125,23.269074471875L33.888628125,22.438500371875ZM33.662107125,24.458304171875L25.733906125,24.458304171875L25.620643125,25.326630171875L33.548845125,25.326630171875L33.662107125,24.458304171875ZM24.469164125,29.819279171875L21.618788125,29.819279171875L25.186479125,27.233175171875L27.885843125,27.233175171875L24.469164125,29.819279171875ZM33.341202124999995,27.252052171875L36.701252125,29.913664171875L33.926378125,29.913664171875L30.717342125,27.252052171875L33.341202124999995,27.252052171875ZM45.290142125,13.509832538875L47.007915125,13.509832538875L45.233505125,29.706018171875L43.477978125,29.706018171875L45.290142125,13.509832538875ZM57.050312125,15.359747171875L56.842655125,16.945387871875L50.481224125,16.945387871875L50.141445125,17.643824571875Q49.612896125,18.814177971875,48.857826125,20.343189271874998L46.781391125,20.343189271874998Q47.970623125,18.210124471874998,48.612434125,16.794373771875Q49.159855125,15.605143771875,49.933800125,13.566462321875001L51.934723125,13.566462321875001L51.179657125,15.359747171875L57.050312125,15.359747171875ZM42.099979125,15.416377071875L43.761131125,15.416377071875L42.534141125,26.327095171875L40.872997125,26.327095171875L42.099979125,15.416377071875ZM52.368896125,20.531955271875L51.236290125,17.662701171875L53.010700125,17.662701171875L54.218807125,20.531955271875L52.368896125,20.531955271875ZM55.483539125,29.422868171875002L46.724766125,29.422868171875002L47.498711125,22.683896071874997Q47.630844125,21.381405871875,49.065475125,21.381405871875L54.652973125,21.381405871875Q55.464672125,21.381405871875,55.879948125,21.815569871875Q56.295235125,22.249732971874998,56.200855125,23.023675871875L55.483539125,29.422868171875002ZM50.990898125,22.929292671875L49.122108125,22.929292671875L48.574676125,27.874981171875L50.424595125,27.874981171875L50.990898125,22.929292671875ZM52.066860125,27.874981171875L54.011158125,27.874981171875L54.520832125,22.929292671875L52.614288125,22.929292671875L52.066860125,27.874981171875ZM63.034214125,21.456912071875Q62.392406125,26.817887171875,60.693508125,29.875910171875L58.881344125,29.366238171875Q59.881813125,27.535202171875,60.391479125,25.572026171875002Q60.806763125,24.005264171874998,61.146545125,21.136009171875L61.693970125,16.530101071875Q61.807228125,15.718403371875,62.175331125,15.350308771875Q62.543419125,14.982213571875,63.298485125,14.982213571875L68.414062125,14.982213571875L67.866638125,13.490955952875L69.980827125,13.490955952875L70.566002125,14.982213571875L75.870346125,14.982213571875L75.643829125,16.832127571875L63.600510125,16.832127571875L63.034214125,21.456912071875ZM70.660385125,17.492810271875L70.414993125,19.493738671875L75.266296125,19.493738671875L75.058655125,21.230391971875L70.490494125,21.230391971875Q71.396576125,23.231320371875,72.755707125,25.024604171874998Q74.133690125,26.874516171875,75.662712125,28.120378171875L73.888298125,28.950952171875002Q71.528725125,26.459231171875,69.943069125,23.420085871875L69.150253125,29.894785171875L67.338096125,29.894785171875L68.093162125,23.514470171875Q67.149330125,25.118988171875,66.00728612500001,26.383725171875Q64.865257125,27.648462171875,63.392868125,28.856570171875L61.769474125,27.931611171874998Q63.676014125,26.647998171875003,65.214466125,24.939658171875Q66.752914125,23.231320371875,67.696754125,21.230391971875L63.657139125,21.230391971875L63.864788125,19.493738671875L68.583961125,19.493738671875L68.829353125,17.492810271875L70.660385125,17.492810271875ZM93.136337125,22.589369771875L80.320579125,22.589369771875L81.169861125,15.492055371875Q81.245376125,14.869125171875,81.602646125,14.538642171875Q81.961319125,14.208300891875,82.585335125,14.208364251875L92.532730125,14.208364251875Q93.193397125,14.208364251875,93.552849125,14.567114371875Q93.911529125,14.925770271875,93.910782125,15.586420271875Q93.910782125,15.794063771874999,93.892891125,15.907343171875L93.136337125,22.589369771875ZM86.643043125,15.775150571874999L83.000221125,15.775150571874999L82.774071125,17.662859471875L86.416893125,17.662859471875L86.643043125,15.775150571874999ZM91.740387125,17.662859471875L91.966537125,15.775150571874999L88.437607125,15.775150571874999L88.209831125,17.662859471875L91.740387125,17.662859471875ZM86.247681125,19.153991671874998L82.603241125,19.153991671874998L82.396606125,21.041700871875L86.019913125,21.041700871875L86.247681125,19.153991671874998ZM88.021095125,19.153991671874998L87.794945125,21.041700871875L91.362923125,21.041700871875L91.569549125,19.153991671874998L88.021095125,19.153991671874998ZM87.342651125,26.610057171875L86.228165125,23.589966171875L87.946258125,23.589966171875L89.153473125,26.610057171875L87.342651125,26.610057171875ZM90.891106125,29.045246171875Q90.192680125,29.252889171874997,89.210426125,29.385285171874997Q88.228836125,29.517422171875,87.228760125,29.517071171875L84.246498125,29.517071171875Q83.491432125,29.517071171875,83.084831125,29.111545171875Q82.678993125,28.705697171875002,82.679703125,28.025940171875Q82.679703125,27.723912171875,82.717125125,27.554113171875002L83.226372125,23.627793171875L85.038833125,23.627793171875L84.604431125,27.403211171875L84.586532125,27.554113171875002Q84.586532125,27.724005171875,84.680900125,27.780672171875Q84.775299125,27.837303171875,84.963997125,27.837210171875L87.191337125,27.837210171875Q88.154053125,27.837210171875,89.182770125,27.686307171875Q90.211540125,27.535293171875,91.060310125,27.271018171875L90.891106125,29.045246171875ZM90.645424125,23.759985171875L92.420471125,23.759985171875L94.420036125,28.252498171875L92.457878125,28.252498171875L90.645424125,23.759985171875ZM78.376327125,28.290325171875L80.263634125,23.778696171874998L82.093994125,23.778696171874998L80.338478125,28.290325171875L78.376327125,28.290325171875ZM103.291983125,24.043081171875002Q101.347679125,24.477243171875,98.988602125,24.722754171875Q98.271294125,24.798261171874998,98.044960125,24.288349171874998Q97.969421125,24.137336171875,97.970108125,23.929599171874997Q97.970108125,23.552065171875,98.233681125,23.231215471875Q99.064270125,22.211874971874998,100.254394125,20.362027671875L99.819992125,20.418565771875002Q98.913917125,20.531825071874998,98.573723125,20.532047271875Q97.913032125,20.532047271875,97.704918125,20.078932771875Q97.629394125,19.927917971875,97.630081125,19.720182371874998Q97.630081125,19.380401571874998,97.856216125,19.021798571875Q99.819374125,16.058160971875,101.009315125,13.660883811875L103.028403125,13.660883811875Q101.669266125,16.341372771875,100.177925125,18.606511071875L100.781540125,18.530856171875Q101.234611125,18.493102071875,101.461624125,18.455608371875Q101.990188125,17.568404671875,102.424793125,16.813167071875L104.369043125,16.813167071875Q103.255303125,18.776340971875,102.537053125,19.984567171875Q101.555481125,21.626838671875,100.744118125,22.740679771875Q101.989990125,22.608543371875,103.519763125,22.211910271875L103.291983125,24.043081171875002ZM103.745913125,29.403996171875L104.670033125,21.249141671875L102.839683125,21.249141671875Q103.745783125,19.644623771875,104.783923125,17.190627371875Q105.557853125,15.378466971875,106.161983125,13.698711211875L107.974433125,13.698711211875Q107.898953125,13.887477071875,107.832903125,14.076171691875Q107.766833125,14.264937581875,107.709253125,14.434921871875Q107.331733125,15.473138771875,107.030793125,16.209148871875L109.484283125,16.209148871875L108.955513125,13.830903741875L110.673603125,13.830903741875L111.259313125,16.209148871875L113.882023125,16.209148871875L113.693293125,17.813762671875L111.051063125,17.813762671875L110.787503125,20.022394671875L113.335353125,20.022394671875L113.146633125,21.589180971875003L110.616673125,21.589180971875003L110.353093125,23.778696171874998L113.109203125,23.778696171874998L112.920473125,25.364193171875L110.182253125,25.364193171875L109.899163125,27.799382171875L113.429713125,27.799382171875L113.240993125,29.403996171875L103.745913125,29.403996171875ZM109.315073125,17.813762671875L106.747703125,17.813762671875L106.502023125,20.022394671875L109.049883125,20.022394671875L109.315073125,17.813762671875ZM108.880673125,21.589180971875003L106.313283125,21.589180971875003L106.067623125,23.778696171874998L108.615473125,23.778696171874998L108.880673125,21.589180971875003ZM108.446263125,25.364193171875L105.898403125,25.364193171875L105.615323125,27.799382171875L108.163173125,27.799382171875L108.446263125,25.364193171875ZM103.142293125,27.346267171875Q100.367447125,28.214596171875,97.346969125,28.818687171875L97.553612125,26.968807171875Q99.894279125,26.534643171875,103.331033125,25.477674171875L103.142293125,27.346267171875ZM124.359813125,14.963285171875Q125.416933125,14.963285171875,125.586543125,15.982591171875L127.737423125,29.139611171875L125.378293125,29.139611171875L124.755153125,25.043676171875L118.658853125,25.043676171875L117.015593125,29.139611171875L114.581623125,29.139611171875L120.017383125,15.831688371875Q120.376033125,14.963361571875,121.338503125,14.963285171875L124.359813125,14.963285171875ZM121.886783125,17.039724371875L119.488613125,22.967237471875002L124.434643125,22.967237471875002L123.528423125,17.039724371875L121.886783125,17.039724371875ZM131.154103125,14.963285171875L133.381423125,14.963285171875L131.645443125,29.139611171875L129.41810312500002,29.139611171875L131.154103125,14.963285171875ZM147.576873125,13.604346091875L147.218953125,16.454416771875L149.578083125,16.454416771875Q151.220333125,16.454416771875,151.050493125,18.304705171875Q150.654083125,22.967243171874998,149.804213125,28.290325171875Q149.690953125,28.969884171875,149.332393125,29.290920171875Q148.973723125,29.611824171875,148.313903125,29.611437171875Q148.068493125,29.611437171875,147.936443125,29.592726171875Q146.482943125,29.441713171875,145.500843125,28.988708171875L145.689573125,27.308846171875L146.670643125,27.572824171875Q147.085903125,27.704962171875,147.576873125,27.799382171875Q147.765643125,27.837135171874998,147.822553125,27.837210171875Q147.973553125,27.837210171875,148.048703125,27.752199171875Q148.124193125,27.667254171875,148.162583125,27.459749171875Q148.370223125,26.157258171875,148.785723125,22.948120071875Q149.050003125,20.852807971875002,149.294963125,18.229050671875L147.010683125,18.229050671875L146.784533125,20.097642371875Q146.180483125,26.081549171875,143.310933125,29.894937171875L141.461043125,29.385285171874997Q143.084423125,27.157839171875,143.896633125,24.911483171875Q144.651703125,22.853926671875,144.972073125,20.078932771875L145.180333125,18.229050671875L143.179143125,18.229050671875L143.387403125,16.454416771875L145.369053125,16.454416771875L145.709093125,13.604346091875L147.576873125,13.604346091875ZM142.424213125,27.459749171875Q140.706433125,27.912788171875,138.667513125,28.290325171875Q138.271133125,28.365832171875,138.120833125,28.384691171874998Q136.082153125,28.781101171875,134.609813125,28.969997171875L134.816433125,27.251901171874998L135.136943125,27.214480171875L135.459093125,27.157536171875L136.817643125,15.642958171875Q136.912003125,14.887891171875,137.299213125,14.538642171875Q137.686203125,14.189424271875,138.516203125,14.189247131875L141.291823125,14.189247131875Q142.046893125,14.189247131875,142.443743125,14.567114371875Q142.840153125,14.944647171875,142.839093125,15.642958171875Q142.839093125,15.850601471875,142.821213125,15.963880971875L141.631863125,25.968616171875Q142.047163125,25.874234171875003,142.612943125,25.704232171875L142.424213125,27.459749171875ZM141.083573125,15.850398771875L138.535723125,15.850398771875L138.252623125,18.285588271875L140.800493125,18.285588271875L141.083573125,15.850398771875ZM140.631273125,19.871084671875L138.063903125,19.871084671875L137.780803125,22.174081771875002L140.366093125,22.174081771875002L140.631273125,19.871084671875ZM137.232513125,26.874441171875L138.573153125,26.610057171875Q139.101683125,26.515673171875,139.894253125,26.346078171875L140.196883125,23.759985171875L137.592073125,23.759985171875L137.232513125,26.874441171875ZM168.682133125,20.154587271875002L163.321193125,20.154587271875002L163.093433125,22.419756871875002L169.946293125,22.419756871875002L169.757573125,24.080909171875L162.924223125,24.080909171875L162.527253125,28.139421171875Q162.432843125,28.932241171875,162.065183125,29.290920171875Q161.697063125,29.649578171875,161.036913125,29.649263171875Q160.753773125,29.649263171875,160.413783125,29.592726171875Q158.884763125,29.347328171875,157.242793125,28.837805171875L157.488463125,26.968807171875Q158.677703125,27.346339171875,160.111173125,27.667189171875002L160.262483125,27.686307171875Q160.451253125,27.686307171875,160.535813125,27.582585171875Q160.620743125,27.478764171875,160.659473125,27.214480171875L160.979983125,24.080909171875L154.127103125,24.080909171875L154.335373125,22.419756871875002L161.149183125,22.419756871875002L161.376953125,20.154587271875002L155.845213125,20.154587271875002L156.053463125,18.530856171875L161.526653125,18.530856171875L161.772323125,16.152611271875Q160.356563125,16.246993971875,158.638753125,16.322631071875Q156.920963125,16.398138071875,156.336563125,16.416996271875L155.939573125,16.435706371875L156.110413125,14.793265271875Q159.564833125,14.680004971875,162.829853125,14.453632271875Q166.680693125,14.189359071875,169.228793125,13.925268891875L169.020543125,15.586420271875Q166.755353125,15.831817171875,163.736083125,16.020418671875L163.490413125,18.530856171875L168.870853125,18.530856171875L168.682133125,20.154587271875002Z" fill="#003F88" fill-opacity="1"/></g></svg>