<svg xmlns="http://www.w3.org/2000/svg" xmlns:xlink="http://www.w3.org/1999/xlink" fill="none" version="1.1" width="100" height="100" viewBox="0 0 100 100"><path d="M12.2558999,88.50554254614258L47.7167355,99.06507454614258L47.7253915,99.06764554614257C49.2123105,99.50859454614258,50.7953455,99.50782354614257,52.2818375,99.06543354614257L52.2829895,99.06509054614259L87.7450105,88.50556554614258L87.7496105,88.50419254614258C91.1390455,87.49270254614258,93.4619145,84.37541554614258,93.4619145,80.83826054614258L93.4619145,23.173076646142576C93.4619145,18.75479844614258,89.8801955,15.173076629642578,85.4619145,15.173076629642578C84.6896435,15.173077106442578,83.9214325,15.284900186142577,83.1812055,15.505065916142579L83.1788175,15.505777356142579L49.9999355,25.38546154614258L16.822225500000002,15.505797866142577L16.8210015,15.505433086142578C12.5867562,14.245295526142579,8.1325979,16.65587044614258,6.87178373,20.889913046142578C6.65113497,21.63089184614258,6.5390625,22.39994284614258,6.5390625,23.173076646142576L6.5390625,80.83826054614258C6.5390625,84.37716254614257,8.864185299999999,87.49555554614258,12.2558999,88.50554254614258ZM49.9998975,33.73260854614258L14.5390625,23.173076646142576L14.5390625,80.83826054614258L49.9998975,91.39779254614258L85.4619145,80.83826054614258L85.4619145,23.173076646142576L49.9998975,33.73260854614258Z" fill-rule="evenodd" fill="#003F88" fill-opacity="1"/><path d="M136.79586027148437,104.56432342529297L49.99880337148438,104.56432342529297L49.99880337148438,104.56432342529297C47.790106071484374,104.56352332529296,45.999603271484375,102.77302072529297,45.999603271484375,100.56432342529297C45.999603271484375,98.35562612529297,47.790106071484374,96.56512331962297,49.99880337148438,96.56512331962297L49.99880337148438,96.56512331962297L136.79586027148437,96.56432342529297L136.79586027148437,96.56432342529297C139.00455427148438,96.56512331962297,140.79505927148438,98.35562612529297,140.79505927148438,100.56432342529297C140.79505927148438,102.77302072529297,139.00455427148438,104.56352332529296,136.79586027148437,104.56432342529297L136.79586027148437,104.56432342529297Z" fill-rule="evenodd" fill="#003F88" fill-opacity="1" transform="matrix(0,-1,1,0,-50.564720153808594,142.56392669677734)"/><path d="M32.35676669158936,29.277784347563475L32.35676669158936,29.277784347563475C32.31869369158936,29.276933908463477,32.280620691589355,29.276208877563477,32.242543691589354,29.276208877563477C30.915387691589356,29.276208877563477,29.746012691589357,30.148388867563476,29.367634691589355,31.420462577563477C28.934356691589358,30.239215847563475,27.809889791589356,29.453943257563477,26.551687191589355,29.453943257563477L26.551687191589355,29.453943257563477L21.373891791589354,29.453343387563475L21.373891791589354,29.453343387563475C19.717368791589355,29.453943257563477,18.374491691589355,30.796820377563478,18.374491691589355,32.45334337756348C18.374491691589355,34.109866177563475,19.717368791589355,35.452743577563474,21.373891791589354,35.452743577563474L21.373891791589354,35.452743577563474L26.551687191589355,35.45334337756348L26.551687191589355,35.45334337756348C27.878842391589355,35.452743577563474,29.048218691589355,34.580563577563474,29.426596691589353,33.30848977756348C29.845507691589354,34.45056727756348,30.912744691589353,35.22651767756348,32.128344691589355,35.272834277563476L32.128344691589355,35.272834277563476L36.850148691589354,35.45334337756348L62.79625569158936,35.45334337756348L62.79625569158936,35.45334337756348C64.45278069158935,35.452743577563474,65.79565669158936,34.109866177563475,65.79565669158936,32.45334337756348C65.79565669158936,30.796820377563478,64.45278069158935,29.453943257563477,62.79625569158936,29.453943257563477L62.79625569158936,29.453943257563477L36.96440769158936,29.453343157563477L32.35676669158936,29.277784347563475Z" fill-rule="evenodd" fill="#36C4FD" fill-opacity="1" transform="matrix(0.6547876000404358,0.7558130025863647,-0.75581294298172,0.6547876000404358,28.470439965989442,-3.781169408077176)"/><path d="M90.9538691328125,52.84889221191406L70.2426862328125,52.84889221191406L70.2426862328125,52.84889221191406C68.5861632328125,52.848292311914065,67.2432861328125,51.50541501191406,67.2432861328125,49.84889221191406C67.2432861328125,48.19236921191406,68.5861632328125,46.84949207306406,70.2426862328125,46.84949207306406L70.2426862328125,46.84949207306406L90.9538691328125,46.84889221191406L90.9538691328125,46.84889221191406C92.6103901328125,46.84949207306406,93.95327013281249,48.19236921191406,93.95327013281249,49.84889221191406C93.95327013281249,51.50541501191406,92.6103901328125,52.848292311914065,90.9538691328125,52.84889221191406L90.9538691328125,52.84889221191406Z" fill-rule="evenodd" fill="#36C4FD" fill-opacity="1" transform="matrix(-0.6547876000404358,0.7558130025863647,0.75581294298172,0.6547876000404358,75.86435698042897,-34.65053147989329)"/><path d="M58.41432580322265,69.54447840732422Q58.41432580322265,69.75162890732422,58.404159803222655,69.95852850732422Q58.393996803222656,70.16542910732421,58.37369380322266,70.37158110732422Q58.353389803222655,70.57773300732421,58.32299380322266,70.78264040732422Q58.29259880322266,70.98754790732421,58.25218380322266,71.19071750732422Q58.211770803222656,71.39388650732423,58.161437803222654,71.59482850732422Q58.11110280322266,71.79577050732422,58.05097180322265,71.99400050732422Q57.990836803222656,72.19223050732421,57.921050803222656,72.38727050732422Q57.851264803222655,72.58231050732422,57.771991803222654,72.77369250732421Q57.69271880322266,72.96507350732422,57.60415280322266,73.15233450732421Q57.51558480322266,73.33959550732422,57.417935803222655,73.52228650732422Q57.320284803222656,73.70497550732422,57.21378780322266,73.88265450732422Q57.10729180322266,74.06033150732422,56.99220580322266,74.23257050732423Q56.87711880322266,74.40480950732422,56.753720803222656,74.57119450732422Q56.63032380322266,74.73757950732421,56.498908803222655,74.89770850732421Q56.367494803222655,75.05783650732423,56.22837980322266,75.21132450732422Q56.089267803222654,75.36481150732422,55.94278980322265,75.51128950732422Q55.796312803222655,75.65776650732423,55.64282480322265,75.79688050732422Q55.489337803222654,75.93599550732422,55.329208803222656,76.06740950732421Q55.16907980322266,76.19882350732422,55.00269480322265,76.32222150732422Q54.83631180322266,76.44561950732422,54.664071803222654,76.56070650732421Q54.49183280322266,76.67579250732422,54.31415480322266,76.78228750732421Q54.136476803222656,76.88878450732422,53.95378780322265,76.98643450732422Q53.771096803222655,77.08408450732422,53.58383680322265,77.17265150732422Q53.396574803222656,77.26121950732423,53.205193803222656,77.34049250732421Q53.01381180322266,77.41976550732421,52.81877280322266,77.48955150732422Q52.623731803222654,77.55933750732422,52.425502803222656,77.61947250732422Q52.227271803222656,77.67960350732422,52.02632980322266,77.72993650732423Q51.825387803222654,77.78026950732422,51.62221880322266,77.82068250732422Q51.41905020322265,77.86109550732422,51.21414280322266,77.89149050732422Q51.009235403222654,77.92188650732422,50.80308340322266,77.94219250732422Q50.596931503222656,77.96249350732421,50.390031803222655,77.97266050732422Q50.183130303222654,77.98282250732422,49.975980803222654,77.98282450732421Q49.76883120322266,77.98282250732422,49.56193070322266,77.97266050732422Q49.355031003222656,77.96249350732421,49.14887900322265,77.94219250732422Q48.942726103222654,77.92188650732422,48.73781820322266,77.89149050732422Q48.53291030322266,77.86109550732422,48.32974100322266,77.82068250732422Q48.12657170322266,77.78026950732422,47.92563010322266,77.72993650732423Q47.72468850322266,77.67960350732422,47.52645870322266,77.61947250732422Q47.328228503222654,77.55933750732422,47.133187803222654,77.48955150732422Q46.938147103222654,77.41976550732421,46.746765603222656,77.34049250732421Q46.55538420322266,77.26121950732423,46.36812310322266,77.17265150732422Q46.180861903222656,77.08408550732422,45.99817230322266,76.98643550732422Q45.815482603222655,76.88878550732422,45.637804503222654,76.78228850732422Q45.460125903222654,76.67579250732422,45.28788710322266,76.56070650732421Q45.115648303222656,76.44561950732422,44.94926400322266,76.32222150732422Q44.78288010322266,76.19882350732422,44.622751203222656,76.06740950732421Q44.46262220322266,75.93599550732422,44.30913450322266,75.79688050732422Q44.15564660322266,75.65776650732423,44.00916960322266,75.51128950732422Q43.862692603222655,75.36481150732422,43.723579203222656,75.21132450732422Q43.58446600322266,75.05783650732423,43.453051703222656,74.89770750732421Q43.32163720322266,74.73757950732421,43.19823830322266,74.57119350732422Q43.074839403222654,74.40480950732422,42.95975300322266,74.23257050732423Q42.84466680322266,74.06033150732422,42.738170603222656,73.88265450732422Q42.631674403222654,73.70497550732422,42.53402471322266,73.52228650732422Q42.43637502322266,73.33959550732422,42.34780705322266,73.15233550732422Q42.259239193222655,72.96507350732422,42.179966453222654,72.77369250732421Q42.10069370322265,72.58231050732422,42.030907033222654,72.38726950732422Q41.96112042322265,72.19223050732421,41.900988073222656,71.99400050732422Q41.840855653222654,71.79577050732422,41.79052239322266,71.59482750732423Q41.740189103222654,71.39388650732423,41.699776203222655,71.19071750732422Q41.659363303222655,70.98754790732421,41.62896813422265,70.78264040732422Q41.598572962222654,70.57773300732421,41.578268736222654,70.37158110732422Q41.55796451322266,70.16542910732421,41.54780015822266,69.95852850732422Q41.537635803222656,69.75162890732422,41.537635803222656,69.54447840732422Q41.537635803222656,69.33732790732422,41.54780015822266,69.13042830732422Q41.55796451322266,68.92352870732422,41.578268736222654,68.71737670732422Q41.598572962222654,68.51122430732421,41.62896813422265,68.30631640732422Q41.659363303222655,68.10140900732422,41.699776203222655,67.89823910732422Q41.740189103222654,67.69506930732422,41.79052239322266,67.49412730732422Q41.840855653222654,67.29318570732421,41.900988043222654,67.09495590732422Q41.96112042322265,66.89672560732421,42.03090706322266,66.70168450732422Q42.10069370322265,66.50664420732421,42.179966453222654,66.31526280732422Q42.259239193222655,66.12388130732421,42.34780705322266,65.93662020732422Q42.43637502322266,65.74935910732422,42.534024773222654,65.56666950732422Q42.631674403222654,65.38397980732422,42.738170603222656,65.20630170732422Q42.84466680322266,65.02862310732422,42.95975300322266,64.85638430732422Q43.074839403222654,64.68414540732422,43.19823830322266,64.51776150732422Q43.32163730322266,64.35137720732422,43.45305180322266,64.19124840732422Q43.58446600322266,64.03111930732422,43.72357940322266,63.877631407324216Q43.862692603222655,63.72414370732422,44.00916960322266,63.57766680732422Q44.15564660322266,63.431189807324216,44.309134203222655,63.29207660732422Q44.46262220322266,63.15296320732422,44.62275100322265,63.02154870732422Q44.782879803222656,62.890134207324216,44.94926400322266,62.76673530732422Q45.115648303222656,62.64333630732422,45.287886903222656,62.52825000732422Q45.46012570322266,62.41316380732422,45.637804003222655,62.30666760732422Q45.81548210322266,62.20017130732422,45.998171803222654,62.10252165732422Q46.18086150322266,62.004871907324215,46.36812260322266,61.91630398732422Q46.55538370322266,61.82773601732422,46.74676510322266,61.74846327732422Q46.938146603222656,61.66919052732422,47.133187303222655,61.59940385732422Q47.328228003222655,61.529617217324216,47.526458303222654,61.46948483732422Q47.72468800322265,61.40935241732422,47.92562960322266,61.35901912732422Q48.12657170322266,61.30868585732422,48.32974150322266,61.26827293732422Q48.532911303222654,61.22786003732422,48.73781870322266,61.19746485332422Q48.94272660322265,61.16706967332422,49.14887900322265,61.14676544832422Q49.355031003222656,61.12646122132422,49.56193070322266,61.11629686432422Q49.76883120322266,61.10613250732422,49.975980803222654,61.10613250732422Q50.183130303222654,61.10613250732422,50.39003090322266,61.11629686432422Q50.596931503222656,61.12646122132422,50.80308340322266,61.14676544832422Q51.009235403222654,61.16706967332422,51.21414280322266,61.19746485332422Q51.41905020322265,61.22786003732422,51.62221880322266,61.26827293732422Q51.825387803222654,61.30868585732422,52.02632980322266,61.35901912732422Q52.227271803222656,61.40935241732422,52.42550180322266,61.46948480732422Q52.623731803222654,61.52961718732422,52.81877180322266,61.59940385732422Q53.01381180322266,61.66919052732422,53.205193803222656,61.74846327732422Q53.396574803222656,61.82773601732422,53.58383680322265,61.916303937324216Q53.77109780322266,62.004871907324215,53.95378880322266,62.10252165732422Q54.136477803222654,62.20017130732422,54.314155803222654,62.30666760732422Q54.49183280322266,62.41316390732422,54.664071803222654,62.52825010732422Q54.83631180322266,62.64333630732422,55.00269580322266,62.76673530732422Q55.169080803222656,62.890134207324216,55.32920980322265,63.02154870732422Q55.489337803222654,63.15296320732422,55.64282580322266,63.292076307324216Q55.796312803222655,63.431189807324216,55.94279080322266,63.57766680732422Q56.089267803222654,63.72414370732422,56.22838180322266,63.87763170732422Q56.367494803222655,64.03111930732422,56.49890980322266,64.19124840732422Q56.63032380322266,64.35137720732422,56.753720803222656,64.51776150732422Q56.877119803222655,64.68414540732422,56.99220680322266,64.85638430732422Q57.10729180322266,65.02862310732422,57.213788803222656,65.20630170732422Q57.320284803222656,65.38397980732422,57.41793480322266,65.56666950732422Q57.515583803222654,65.74935910732422,57.60415280322266,65.93662020732422Q57.69271880322266,66.12388130732421,57.771991803222654,66.31526280732422Q57.851264803222655,66.50664420732421,57.921050803222656,66.70168450732422Q57.990836803222656,66.89672520732422,58.05097180322265,67.09495540732422Q58.11110280322266,67.29318520732421,58.161437803222654,67.49412730732422Q58.211770803222656,67.69506930732422,58.25218380322266,67.89823870732423Q58.29259880322266,68.10140800732422,58.32299380322266,68.30631640732422Q58.353389803222655,68.51122380732421,58.37369380322266,68.71737620732422Q58.393996803222656,68.92352820732422,58.404159803222655,69.13042830732422Q58.41432580322265,69.33732790732422,58.41432580322265,69.54447840732422Z" fill="#003F88" fill-opacity="1"/><path d="M49.975980803222654,80.48282450732421C56.01706280322266,80.48282450732421,60.91432580322265,75.58555950732422,60.91432580322265,69.54447850732421C60.91432580322265,63.50339650732422,56.01706280322266,58.60613250732422,49.975980803222654,58.60613250732422C43.93489930322266,58.60613250732422,39.037635803222656,63.50339650732422,39.037635803222656,69.54447850732421C39.037635803222656,75.58555950732422,43.93489930322266,80.48282450732421,49.975980803222654,80.48282450732421ZM49.975980803222654,63.60613250732422C53.255637803222655,63.60613250732422,55.91432580322265,66.26482010732423,55.91432580322265,69.54447850732421C55.91432580322265,72.82413650732423,53.255637803222655,75.48282450732421,49.975980803222654,75.48282450732421C46.69632340322266,75.48282450732421,44.037635803222656,72.82413650732423,44.037635803222656,69.54447850732421C44.037635803222656,66.26482010732423,46.69632340322266,63.60613250732422,49.975980803222654,63.60613250732422Z" fill-rule="evenodd" fill="#36C4FD" fill-opacity="1"/><ellipse cx="31.498454093933105" cy="49.27782440185547" rx="6.943209648132324" ry="6.943210601806641" fill="#36C4FD" fill-opacity="1"/><ellipse cx="31.498454093933105" cy="49.27782440185547" rx="5.943209648132324" ry="5.943210601806641" fill-opacity="0" stroke-opacity="1" stroke="#FFFFFF" fill="none" stroke-width="2"/><ellipse cx="70.05581188201904" cy="49.27782440185547" rx="6.943209648132324" ry="6.943210601806641" fill="#36C4FD" fill-opacity="1"/><ellipse cx="70.05581188201904" cy="49.27782440185547" rx="5.943209648132324" ry="5.943210601806641" fill-opacity="0" stroke-opacity="1" stroke="#FFFFFF" fill="none" stroke-width="2"/></svg>